<mxfile host="Electron" modified="2024-03-28T13:35:04.292Z" agent="Mozilla/5.0 (Windows NT 10.0; Win64; x64) AppleWebKit/537.36 (KHTML, like Gecko) draw.io/24.0.4 Chrome/120.0.6099.109 Electron/28.1.0 Safari/537.36" etag="s4ELU7PRiSOI6Bj713Zp" version="24.0.4" type="device">
  <diagram name="Page-1" id="MwBE6oOL2N1eClu3vzFH">
    <mxGraphModel dx="1084" dy="951" grid="1" gridSize="10" guides="1" tooltips="1" connect="1" arrows="1" fold="1" page="1" pageScale="1" pageWidth="850" pageHeight="1100" math="0" shadow="0">
      <root>
        <mxCell id="0" />
        <mxCell id="1" parent="0" />
        <mxCell id="m6S9LD4SkrAyg9ewOb2b-6" style="edgeStyle=orthogonalEdgeStyle;rounded=0;orthogonalLoop=1;jettySize=auto;html=1;entryX=0;entryY=0.5;entryDx=0;entryDy=0;" edge="1" parent="1" source="m6S9LD4SkrAyg9ewOb2b-1" target="m6S9LD4SkrAyg9ewOb2b-2">
          <mxGeometry relative="1" as="geometry" />
        </mxCell>
        <mxCell id="m6S9LD4SkrAyg9ewOb2b-1" value="Problem" style="rounded=0;whiteSpace=wrap;html=1;fillColor=#f8cecc;strokeColor=#b85450;" vertex="1" parent="1">
          <mxGeometry x="210" y="330" width="120" height="60" as="geometry" />
        </mxCell>
        <mxCell id="m6S9LD4SkrAyg9ewOb2b-7" style="edgeStyle=orthogonalEdgeStyle;rounded=0;orthogonalLoop=1;jettySize=auto;html=1;entryX=0;entryY=0.5;entryDx=0;entryDy=0;" edge="1" parent="1" source="m6S9LD4SkrAyg9ewOb2b-2" target="m6S9LD4SkrAyg9ewOb2b-4">
          <mxGeometry relative="1" as="geometry" />
        </mxCell>
        <mxCell id="m6S9LD4SkrAyg9ewOb2b-2" value="Learn" style="rounded=0;whiteSpace=wrap;html=1;fillColor=#d5e8d4;strokeColor=#82b366;" vertex="1" parent="1">
          <mxGeometry x="425" y="330" width="120" height="60" as="geometry" />
        </mxCell>
        <mxCell id="m6S9LD4SkrAyg9ewOb2b-9" style="edgeStyle=orthogonalEdgeStyle;rounded=0;orthogonalLoop=1;jettySize=auto;html=1;entryX=1;entryY=0.5;entryDx=0;entryDy=0;" edge="1" parent="1" source="m6S9LD4SkrAyg9ewOb2b-3" target="m6S9LD4SkrAyg9ewOb2b-5">
          <mxGeometry relative="1" as="geometry">
            <Array as="points">
              <mxPoint x="920" y="530" />
            </Array>
          </mxGeometry>
        </mxCell>
        <mxCell id="m6S9LD4SkrAyg9ewOb2b-3" value="Adapt" style="rounded=0;whiteSpace=wrap;html=1;fillColor=#ffe6cc;strokeColor=#d79b00;" vertex="1" parent="1">
          <mxGeometry x="860" y="330" width="120" height="60" as="geometry" />
        </mxCell>
        <mxCell id="m6S9LD4SkrAyg9ewOb2b-8" style="edgeStyle=orthogonalEdgeStyle;rounded=0;orthogonalLoop=1;jettySize=auto;html=1;" edge="1" parent="1" source="m6S9LD4SkrAyg9ewOb2b-4" target="m6S9LD4SkrAyg9ewOb2b-3">
          <mxGeometry relative="1" as="geometry" />
        </mxCell>
        <mxCell id="m6S9LD4SkrAyg9ewOb2b-4" value="Design" style="rounded=0;whiteSpace=wrap;html=1;fillColor=#dae8fc;strokeColor=#6c8ebf;" vertex="1" parent="1">
          <mxGeometry x="640" y="330" width="120" height="60" as="geometry" />
        </mxCell>
        <mxCell id="m6S9LD4SkrAyg9ewOb2b-10" style="edgeStyle=orthogonalEdgeStyle;rounded=0;orthogonalLoop=1;jettySize=auto;html=1;entryX=0.5;entryY=1;entryDx=0;entryDy=0;" edge="1" parent="1" source="m6S9LD4SkrAyg9ewOb2b-5" target="m6S9LD4SkrAyg9ewOb2b-1">
          <mxGeometry relative="1" as="geometry" />
        </mxCell>
        <mxCell id="m6S9LD4SkrAyg9ewOb2b-5" value="Evaluate" style="rounded=0;whiteSpace=wrap;html=1;fillColor=#bac8d3;strokeColor=#23445d;" vertex="1" parent="1">
          <mxGeometry x="530" y="500" width="120" height="60" as="geometry" />
        </mxCell>
      </root>
    </mxGraphModel>
  </diagram>
</mxfile>
